<svg xmlns="http://www.w3.org/2000/svg" viewBox="0 0 63.81 48"><defs><style>.cls-1{fill:#f2f2f2;}</style></defs><g id="Layer_2" data-name="Layer 2"><g id="Layer_1-2" data-name="Layer 1"><path class="cls-1" d="M22.44,32.15c1.95-2,3.75-3.8,5.57-5.62Q40.22,14.3,52.44,2.1a6.26,6.26,0,0,1,7-1.65A6.32,6.32,0,0,1,63.8,6.37,6.08,6.08,0,0,1,62,11.16L40.77,32.36,27.28,45.86a6.43,6.43,0,0,1-7.79,1.39,6.72,6.72,0,0,1-1.64-1.2Q10,38.21,2.11,30.32A6.24,6.24,0,0,1,.48,23.24,6.34,6.34,0,0,1,6.38,19a6.29,6.29,0,0,1,5,2l5.29,5.3C18.55,28.19,20.44,30.12,22.44,32.15Z"/></g></g></svg>