<svg xmlns="http://www.w3.org/2000/svg" viewBox="0 0 43.4 48"><defs><style>.cls-1{fill:#fff;}</style></defs><g id="Layer_2" data-name="Layer 2"><g id="Cryptogamic_Deseases" data-name="Cryptogamic Deseases"><path class="cls-1" d="M35.14,25.6A14.2,14.2,0,0,1,20.63,39.7C13.3,39.48,7.1,33,7.19,25.35A14.14,14.14,0,0,1,21.26,11.43,14.1,14.1,0,0,1,35.14,25.6Zm-14-11.22a11.19,11.19,0,0,0,0,22.38,11.19,11.19,0,0,0,0-22.38Z"/><path class="cls-1" d="M0,16.19a3.68,3.68,0,0,1,3.66-3.72A3.7,3.7,0,1,1,0,16.19Z"/><path class="cls-1" d="M30.93,40.14a3.64,3.64,0,1,1,7.27,0,3.64,3.64,0,1,1-7.27,0Z"/><path class="cls-1" d="M19.59,3.64a3.64,3.64,0,1,1,7.28,0,3.64,3.64,0,1,1-7.28,0Z"/><path class="cls-1" d="M20.7,45.33A2.65,2.65,0,0,1,18.07,48a2.66,2.66,0,0,1,0-5.32A2.65,2.65,0,0,1,20.7,45.33Z"/><path class="cls-1" d="M40.28,17.19a2.63,2.63,0,0,1-2.63,2.68A2.67,2.67,0,0,1,35,17.24a2.7,2.7,0,0,1,2.58-2.68A2.65,2.65,0,0,1,40.28,17.19Z"/><path class="cls-1" d="M10.32,8.86A2.55,2.55,0,0,1,13,6.26a2.63,2.63,0,0,1,2.57,2.66,2.7,2.7,0,0,1-2.63,2.63A2.64,2.64,0,0,1,10.32,8.86Z"/><path class="cls-1" d="M40.75,31.32a2.62,2.62,0,0,1-2.62-2.68,2.63,2.63,0,1,1,2.62,2.68Z"/><path class="cls-1" d="M2.07,35.94a2.56,2.56,0,0,1,2.6-2.6,2.55,2.55,0,0,1,2.61,2.59,2.61,2.61,0,1,1-5.21,0Z"/><path class="cls-1" d="M29.9,11a1.55,1.55,0,0,1,1.6-1.59,1.59,1.59,0,0,1,1.58,1.55,1.66,1.66,0,0,1-1.58,1.66A1.61,1.61,0,0,1,29.9,11Z"/><path class="cls-1" d="M1.6,27.14A1.56,1.56,0,0,1,0,25.54a1.59,1.59,0,0,1,1.61-1.6,1.65,1.65,0,0,1,1.58,1.58A1.59,1.59,0,0,1,1.6,27.14Z"/></g></g></svg>