<svg xmlns="http://www.w3.org/2000/svg" viewBox="0 0 294.6 257.2"><g id="Layer_2" data-name="Layer 2" fill="#fff"><path d="M175.08,103.64A66.9,66.9,0,0,0,129.05.7a67.86,67.86,0,0,0-9.73-.7A66.91,66.91,0,0,0,61.2,100.38H61l58.13,87.12,55.34-83C174.69,104.24,174.89,103.94,175.08,103.64Zm-3.52-2.31c-.18.28-.37.56-.57.85l-51.84,77.73L68.32,103.72l-1.58-2.39a62.72,62.72,0,1,1,104.82,0Z"/><path d="M121.48,113.06l-.57-.22-.5.58a16.54,16.54,0,0,1-12.4,5.86l-.61-.11-.39.66a14.05,14.05,0,1,0,14.47-6.77Zm-2.33,25.67a11.82,11.82,0,0,1-10.54-17.19l.17-.06a18.7,18.7,0,0,0,12.8-6l.06-.07.16,0,0-.21.06.24a11.82,11.82,0,0,1-2.66,23.34Z"/><path d="M130.51,88.67c-.37,0-.73,0-1,0l-.34,0-.34.3a14.6,14.6,0,0,1-6.29,3.26l-1.51.36.83,1.32a16.47,16.47,0,0,1,1.1,15.52l-.52,1.17,1.24.35a16.56,16.56,0,0,1,8.14,5.24l.41.48.62-.11a14,14,0,0,0-2.29-27.91Zm2.59,25.59-.16-.09a18.76,18.76,0,0,0-7.3-4.88l-.22-.08.08-.23a18.78,18.78,0,0,0-1-14.72l-.12-.25.26-.09a16.27,16.27,0,0,0,5.21-3l.08,0,.53,0a11.84,11.84,0,0,1,11.82,11.83A12,12,0,0,1,133.1,114.26Z"/><path d="M106.47,86.55l.44-.59-.37-.63a14.53,14.53,0,0,1,0-14.4l.37-.63-.44-.59a14.21,14.21,0,0,0-10.71-5.6H94.68l-.7.05-1.06.13-.22,0a14,14,0,1,0,13.77,22.23ZM83.4,78.13a11.82,11.82,0,0,1,20.8-7.69l0,.2a16.82,16.82,0,0,0,0,15.06l-.07.19A11.82,11.82,0,0,1,83.4,78.13Z"/><path d="M145.23,64.26l-.23,0-1.06-.11-.34,0h-1.07a14.19,14.19,0,0,0-10.7,5.6l-.44.59.36.63a14.53,14.53,0,0,1,.32,13.81l-.71,1.38,1.54.22a16.58,16.58,0,0,1,10,5.45l.36.4.53,0a14,14,0,0,0,1.42-27.9Zm-.91,25.66-.19-.11a18.85,18.85,0,0,0-9.2-5.34l-.26-.06.1-.25a16.76,16.76,0,0,0-.69-13.6l.07-.18a11.83,11.83,0,1,1,10.17,19.54Z"/><path d="M121.84,102.72a13.94,13.94,0,0,0-4.08-9.88l-.2-.28-.45-.06A14.48,14.48,0,0,1,109.54,89l-.21-.26-1.26-.17-.43.48a16.52,16.52,0,0,1-10.79,5.54l-.51,0-.36.55a14,14,0,1,0,25.86,7.61Zm-25.88,0a12.2,12.2,0,0,1,1.54-5.89l.19-.08a18.59,18.59,0,0,0,10.85-5.39l.15-.15.17.13a16.73,16.73,0,0,0,7.48,3.28l.13.08a11.82,11.82,0,1,1-20.51,8Z"/><path d="M119.83,72.69l-.22,0h-1l-.2,0a5.7,5.7,0,1,0,1.37,0Z"/><path d="M87.42,49.23a2.56,2.56,0,0,0,.81-.14l6.58,6.61h10.91l6.7,5.58v4a14.19,14.19,0,0,1,2-.85v-4l0-.14L97.7,46.55V41.8a2.65,2.65,0,1,0-1.94,0v5.57l0,.13,7.58,6.25H95.62l-5.88-5.91a2.56,2.56,0,0,0,.33-1.27,2.66,2.66,0,1,0-2.65,2.66Zm9.31-8.75a1.14,1.14,0,1,1,1.14-1.14A1.14,1.14,0,0,1,96.73,40.48Zm-9.31,5a1.14,1.14,0,1,1-1.14,1.13A1.14,1.14,0,0,1,87.42,45.44Z"/><path d="M107.8,35.35v13.2L118.16,57v6.71h2V57l10.36-8.41V35.35a2.66,2.66,0,1,0-1.95,0V47.62l-8.41,6.82V28.32a2.65,2.65,0,1,0-2,0V54.44l-8.41-6.82V35.35a2.66,2.66,0,1,0-2,0Zm20.57-2.45A1.14,1.14,0,1,1,129.5,34,1.14,1.14,0,0,1,128.37,32.9Zm-10.37-7A1.14,1.14,0,1,1,119.14,27,1.14,1.14,0,0,1,118,25.87Zm-9.22,5.89a1.14,1.14,0,1,1-1.14,1.14A1.14,1.14,0,0,1,108.78,31.76Z"/><path d="M140.58,41.8v4.75L123.91,60.37v4.05a15.48,15.48,0,0,1,2,.84v-4l6.7-5.58h10.91l6.58-6.61a2.6,2.6,0,0,0,.81.14,2.66,2.66,0,1,0-2.65-2.66,2.56,2.56,0,0,0,.33,1.27l-5.88,5.91h-7.75l7.61-6.28V41.8a2.66,2.66,0,1,0-1.95,0Zm10.28,3.64a1.14,1.14,0,1,1-1.13,1.13A1.14,1.14,0,0,1,150.86,45.44Zm-9.31-7.24a1.14,1.14,0,1,1-1.14,1.14A1.14,1.14,0,0,1,141.55,38.2Z"/><path d="M30.46,199A26.15,26.15,0,0,0,17,195.52H0v60.85H16.63a27,27,0,0,0,13.75-3.43,23.93,23.93,0,0,0,9.26-9.63A30.47,30.47,0,0,0,43,228.75v-5.6a30.48,30.48,0,0,0-3.32-14.57A24.2,24.2,0,0,0,30.46,199Zm7.4,29.8a27,27,0,0,1-2.59,12.13,19.57,19.57,0,0,1-7.36,8.19,20.93,20.93,0,0,1-11.28,3H5.14V199.91H17a20.67,20.67,0,0,1,11,2.87,19.28,19.28,0,0,1,7.29,8,27,27,0,0,1,2.59,12.24Z"/><path d="M81.23,213a18.42,18.42,0,0,0-19.32.17,20.51,20.51,0,0,0-7.11,8,25.8,25.8,0,0,0-2.69,12.12V235a24.37,24.37,0,0,0,2.61,11.47,20,20,0,0,0,7.19,7.86,19.31,19.31,0,0,0,10.47,2.86,18.92,18.92,0,0,0,10-2.36,19.2,19.2,0,0,0,6.08-5.66l-3.17-2.38a15.64,15.64,0,0,1-5.56,4.7A16.23,16.23,0,0,1,72.58,253a13.89,13.89,0,0,1-8.06-2.42,16.22,16.22,0,0,1-5.45-6.48,20.63,20.63,0,0,1-2-9.07v-1H89.38V231a26.22,26.22,0,0,0-2.07-10.7A16.58,16.58,0,0,0,81.23,213Zm3.14,16.86h-27a22.52,22.52,0,0,1,1.59-6.33A15.43,15.43,0,0,1,64,216.92a12.31,12.31,0,0,1,7.48-2.38,11.55,11.55,0,0,1,7.1,2.11,13.16,13.16,0,0,1,4.28,5.45,19,19,0,0,1,1.53,7.15Z"/><polygon points="119.34 248.8 119 250.12 118.63 248.8 99.54 195.52 93.94 195.52 116.54 256.37 117.34 256.37 120.72 256.37 121.48 256.37 144.12 195.52 138.52 195.52 119.34 248.8"/><path d="M155.07,194.69a3.19,3.19,0,0,0-2.48,1,3.44,3.44,0,0,0-.9,2.4,3.3,3.3,0,0,0,.9,2.34,3.22,3.22,0,0,0,2.48,1,3.36,3.36,0,0,0,2.55-1,3.27,3.27,0,0,0,.92-2.34,3.41,3.41,0,0,0-.92-2.4A3.33,3.33,0,0,0,155.07,194.69Z"/><rect x="152.56" y="211.15" width="4.97" height="45.21"/><path d="M198.61,212a16.58,16.58,0,0,0-7.77-1.67,16,16,0,0,0-9.13,2.63,18.57,18.57,0,0,0-5.58,5.91l-.16-7.71h-4.81v45.22h5v-31a19.56,19.56,0,0,1,2.69-5.11,14.59,14.59,0,0,1,4.51-4.05,12.26,12.26,0,0,1,6.29-1.57,13.08,13.08,0,0,1,5.64,1.13,7.74,7.74,0,0,1,3.68,3.8,17.21,17.21,0,0,1,1.3,7.36v29.46h5V227a22.76,22.76,0,0,0-1.73-9.63A11.13,11.13,0,0,0,198.61,212Z"/><path d="M244.58,213a18.44,18.44,0,0,0-19.33.17,20.48,20.48,0,0,0-7.1,8,25.68,25.68,0,0,0-2.69,12.12V235a24.25,24.25,0,0,0,2.61,11.47,20,20,0,0,0,7.18,7.86,19.31,19.31,0,0,0,10.47,2.86,18.94,18.94,0,0,0,10-2.36,19.31,19.31,0,0,0,6.08-5.66l-3.18-2.38a15.56,15.56,0,0,1-5.56,4.7,16.21,16.21,0,0,1-7.1,1.48,13.92,13.92,0,0,1-8.07-2.42,16.38,16.38,0,0,1-5.45-6.48,20.77,20.77,0,0,1-1.94-9.07v-1h32.26V231a26.22,26.22,0,0,0-2.07-10.7A16.64,16.64,0,0,0,244.58,213Zm3.13,16.86h-27a22.18,22.18,0,0,1,1.59-6.33,15.41,15.41,0,0,1,5-6.58,12.36,12.36,0,0,1,7.48-2.38,11.6,11.6,0,0,1,7.11,2.11,13.16,13.16,0,0,1,4.28,5.45,18.84,18.84,0,0,1,1.52,7.15Z"/><path d="M292.91,238.46a13.12,13.12,0,0,0-5.18-4.26,39.71,39.71,0,0,0-9-2.95,38.49,38.49,0,0,1-7.64-2.42,7.92,7.92,0,0,1-3.51-2.82,6.89,6.89,0,0,1-.92-3.58,7.08,7.08,0,0,1,1.1-3.69,8.25,8.25,0,0,1,3.53-3,14.29,14.29,0,0,1,6.31-1.19q5.65,0,8.65,2.88a8.69,8.69,0,0,1,3,6.4h5.06a12.3,12.3,0,0,0-2-6.94,13.49,13.49,0,0,0-5.74-4.81,21,21,0,0,0-9-1.75,19.86,19.86,0,0,0-8.48,1.67,13.45,13.45,0,0,0-5.52,4.45,10.6,10.6,0,0,0-1.92,6.16,9.94,9.94,0,0,0,1.84,6.15,13.19,13.19,0,0,0,5.37,4,43.09,43.09,0,0,0,8.55,2.6,26.62,26.62,0,0,1,7.64,2.59,8.79,8.79,0,0,1,3.54,3.3,7.85,7.85,0,0,1,.94,3.63,6.7,6.7,0,0,1-1.34,4,9.3,9.3,0,0,1-3.93,3,15.82,15.82,0,0,1-6.44,1.15,19.54,19.54,0,0,1-5.64-.85,11.22,11.22,0,0,1-4.82-2.89,8.52,8.52,0,0,1-2.24-5.58h-5a11.91,11.91,0,0,0,2,6.65,14.48,14.48,0,0,0,6,5,22.14,22.14,0,0,0,9.67,1.9,22.48,22.48,0,0,0,8.84-1.59,13.39,13.39,0,0,0,5.81-4.45,10.92,10.92,0,0,0,2.07-6.58A10.75,10.75,0,0,0,292.91,238.46Z"/></g></svg>