<svg xmlns="http://www.w3.org/2000/svg" viewBox="0 0 48 48"><defs><style>.cls-1{fill:#fff;}</style></defs><g id="Layer_2" data-name="Layer 2"><g id="HD_map" data-name="HD map"><path class="cls-1" d="M47.45.34A1.47,1.47,0,0,0,46.21,0L31.5,3,16.79,0a1.42,1.42,0,0,0-.58,0l-15,3A1.5,1.5,0,0,0,0,4.5v42a1.36,1.36,0,0,0,0,.29A1.49,1.49,0,0,0,1.79,48L16.5,45,31.21,48a1.42,1.42,0,0,0,.58,0l15-3A1.5,1.5,0,0,0,48,43.5V1.5A1.48,1.48,0,0,0,47.45.34ZM15,42.27,3,44.67V5.73l12-2.4Zm15,2.4-12-2.4V3.33l12,2.4Zm15-2.4-12,2.4V5.73l12-2.4Z"/><path class="cls-1" d="M6.35,37.93a2.28,2.28,0,0,0,.66.34,6.74,6.74,0,0,0,2,.27,6.74,6.74,0,0,0,2-.27,2.28,2.28,0,0,0,.66-.34.73.73,0,0,0,.32-.58.93.93,0,0,0-.57-.74,4.31,4.31,0,0,0-1.16-.35h0a.3.3,0,0,0-.08.59,3.29,3.29,0,0,1,1,.29.6.6,0,0,1,.22.16.1.1,0,0,1,0,.05h0v0l-.09.09a1.79,1.79,0,0,1-.48.23A5.9,5.9,0,0,1,9,38a5.9,5.9,0,0,1-1.8-.25,1.79,1.79,0,0,1-.48-.23l-.09-.09s0,0,0,0h0a.1.1,0,0,1,0-.05.6.6,0,0,1,.22-.16,3.29,3.29,0,0,1,1-.29.3.3,0,0,0-.1-.59,4.31,4.31,0,0,0-1.16.35.93.93,0,0,0-.57.74A.73.73,0,0,0,6.35,37.93Z"/><path class="cls-1" d="M8.7,33.77v3.29a.3.3,0,0,0,.6,0V33.77a2.38,2.38,0,1,0-.6,0Z"/><path class="cls-1" d="M21.35,17a2.54,2.54,0,0,0,.66.33,7.47,7.47,0,0,0,4,0,2.54,2.54,0,0,0,.66-.33.76.76,0,0,0,.32-.59.9.9,0,0,0-.57-.73,4,4,0,0,0-1.16-.36h0a.3.3,0,0,0-.08.59,3.29,3.29,0,0,1,1,.29.6.6,0,0,1,.22.16.1.1,0,0,1,0,.05h0v0l-.09.09a1.53,1.53,0,0,1-.48.23,6.61,6.61,0,0,1-3.6,0,1.53,1.53,0,0,1-.48-.23l-.09-.09s0,0,0,0h0a.1.1,0,0,1,0-.05.6.6,0,0,1,.22-.16,3.29,3.29,0,0,1,1-.29.29.29,0,0,0,.24-.34.3.3,0,0,0-.34-.25,4,4,0,0,0-1.16.36.9.9,0,0,0-.57.73A.76.76,0,0,0,21.35,17Z"/><path class="cls-1" d="M23.7,12.83v3.29a.3.3,0,0,0,.6,0V12.83a2.38,2.38,0,1,0-.6,0Z"/><path class="cls-1" d="M36.35,28.15a2.54,2.54,0,0,0,.66.33,7.21,7.21,0,0,0,4,0,2.54,2.54,0,0,0,.66-.33.76.76,0,0,0,.32-.58.9.9,0,0,0-.57-.74,4,4,0,0,0-1.16-.36h0a.29.29,0,0,0-.33.26.29.29,0,0,0,.25.33,3.62,3.62,0,0,1,1,.29.73.73,0,0,1,.22.16l0,0h0v0a.38.38,0,0,1-.09.09,1.53,1.53,0,0,1-.48.23,6.6,6.6,0,0,1-3.6,0,1.53,1.53,0,0,1-.48-.23.38.38,0,0,1-.09-.09v0h0l0,0a.73.73,0,0,1,.22-.16,3.62,3.62,0,0,1,1-.29.29.29,0,0,0,.24-.34.3.3,0,0,0-.34-.25,4,4,0,0,0-1.16.36.9.9,0,0,0-.57.74A.76.76,0,0,0,36.35,28.15Z"/><path class="cls-1" d="M38.7,24v3.29a.3.3,0,1,0,.6,0V24a2.38,2.38,0,1,0-.6,0Z"/><polygon class="cls-1" points="36.62 21.62 36.62 21.62 36.62 21.62 36.62 21.62"/></g></g></svg>