<svg xmlns="http://www.w3.org/2000/svg" viewBox="0 0 47.56 48"><defs><style>.cls-1{fill:#fff;}</style></defs><g id="Layer_2" data-name="Layer 2"><g id="HD_map_missing_vines" data-name="HD map, missing vines"><path class="cls-1" d="M33.56,43.39h0c-2.58-.86-5.21-2.17-6.63-4.59a6.39,6.39,0,0,1-.78-2,.59.59,0,1,0-1.14.31c.58,3,3,5.21,5.71,6.47a21,21,0,0,0,2.52,1,.59.59,0,0,0,.32-1.14Z"/><path class="cls-1" d="M47.31,6.78a8.51,8.51,0,0,0-.92-.54l.37,0a.59.59,0,0,0,.59-.59.6.6,0,0,0-.59-.59,15.4,15.4,0,0,0-7.77,1,14.79,14.79,0,0,0-1.8.85c-.56.31-1.1.66-1.66,1a6.12,6.12,0,0,1-1.66.71,3.59,3.59,0,0,1-1.63,0c-.28-.07-.55-.14-.83-.23l.49-.09a5.22,5.22,0,0,0,2-.82,5.72,5.72,0,0,0,.57-.11.59.59,0,0,0-.31-1.14.55.55,0,0,0-.69.08s0,0,0,0a7.22,7.22,0,0,1-2-.22c-.71-.16-1.42-.31-2.13-.42A17.5,17.5,0,0,0,35,1a.61.61,0,0,0,0-.84.61.61,0,0,0-.84,0A16.29,16.29,0,0,1,26.9,5.46a9.51,9.51,0,0,0-3.77.68A6.92,6.92,0,0,0,21,7.51c-.34-.3-.68-.59-1-.86a17.46,17.46,0,0,0-3.8-2.29,14.63,14.63,0,0,0-9.32-.82,11.83,11.83,0,0,0-1.16.34.6.6,0,0,0-.41.72A.58.58,0,0,0,6,5H6a13.31,13.31,0,0,1,9,.14,15.89,15.89,0,0,1,3.73,2A20.16,20.16,0,0,1,20.33,8.5,9.47,9.47,0,0,1,21.78,10c.87,1.28.34,2.84-.19,4.14-.21.5-.43,1-.66,1.49A9.14,9.14,0,0,0,19.21,9.9C16.76,6.71,12.55,5.75,8.74,5.58,6,5.46,3.3,5.65.59,5.34A.59.59,0,0,0,0,5.93a.6.6,0,0,0,.59.59h0c4.3.49,8.75-.31,12.91,1a10.25,10.25,0,0,1,3.88,2.13.54.54,0,0,0-.34.16.59.59,0,0,0,0,.84,1.13,1.13,0,0,1,.44.78,3.18,3.18,0,0,1-.13,1.13c-.23.93-.49,1.84-.74,2.76-.47,1.75-1,3.58-.63,5.41a4.29,4.29,0,0,0,1.33,2.32.57.57,0,0,0,.21.13,15.52,15.52,0,0,0-.85,4.49,10.54,10.54,0,0,0,1,4.72,18.25,18.25,0,0,0,1.1,2A8.37,8.37,0,0,0,20,36.15a5.27,5.27,0,0,0,.58.48c-.08.26-.17.53-.26.8a22.45,22.45,0,0,1-1.3,3.34A14.41,14.41,0,0,1,14.94,44a13.43,13.43,0,0,1-2.87,1.08.59.59,0,0,0,.31,1.14,14.33,14.33,0,0,0,4-1.68c-.42.52-.84,1.06-1.23,1.61a.59.59,0,0,0,1,.6c.93-1.33,2-2.52,2.95-3.84A11.63,11.63,0,0,0,20,41.47a14.35,14.35,0,0,0,2.92-5.25.58.58,0,0,0-.72-.71,36.57,36.57,0,0,0,1.29-5.45,21.26,21.26,0,0,1,.07,4.51,37.65,37.65,0,0,1-1.62,8.06c-.47,1.56-1,3.09-1.54,4.62a.59.59,0,0,0,1.14.32h0a70.91,70.91,0,0,0,2.54-8.42,28.47,28.47,0,0,0,.67-8.33,14.68,14.68,0,0,0-1.07-4.47A14,14,0,0,0,23,22.61l0-.05c1.13-2.35,2.24-4.72,2.17-7.37A7.54,7.54,0,0,0,24,11.26h.06a6.36,6.36,0,0,1,2.6.93,11.93,11.93,0,0,0,2.36.86,9.69,9.69,0,0,0,4.9-.07,7.73,7.73,0,0,0,4-2.8c1-1.31,1.9-2.94,3.5-3.5a6.3,6.3,0,0,1,5.36,1C47.35,8.12,47.88,7.15,47.31,6.78ZM21.84,8.31a6.86,6.86,0,0,1,3.78-1.62,16.66,16.66,0,0,1,5.44.54c-.65.11-1.3.2-1.94.35-.95.22-1.87.52-2.8.82a11.23,11.23,0,0,0-2.07.84,5,5,0,0,0-1.11.85,2.44,2.44,0,0,0-.1-.24A5.57,5.57,0,0,0,21.84,8.31ZM17.15,18c.18-.94.45-1.86.7-2.78s.54-1.81.72-2.73a3.92,3.92,0,0,0,0-1.41,8.18,8.18,0,0,1,1.14,4,14.6,14.6,0,0,1-.49,3.95c-.48,1-.93,2-1.32,3A4.49,4.49,0,0,1,17.15,18Zm4.64,14.56c-.12.49-.26,1-.39,1.47a11.33,11.33,0,0,1-.7-3.45,12.37,12.37,0,0,1,1-5.16c.16-.42.35-.84.54-1.26A18.81,18.81,0,0,1,21.79,32.59ZM22.85,20c-.72,1.71-1.62,3.34-2.3,5.07a13.38,13.38,0,0,0-1,5.26,12.56,12.56,0,0,0,.93,4.49c-.11-.13-.21-.27-.31-.41a18.41,18.41,0,0,1-1.15-2A9.71,9.71,0,0,1,17.84,28a14.48,14.48,0,0,1,.95-4.92.62.62,0,0,0,.62-.43c.34-1.06.68-2.12,1-3.2.07-.16.15-.32.23-.48.74-1.49,1.49-3,2.12-4.51a10,10,0,0,0,.61-2A6.25,6.25,0,0,1,24,15,11.71,11.71,0,0,1,22.85,20Zm15-11.61a13.4,13.4,0,0,1-1.64,2,6.27,6.27,0,0,1-1.88,1.22,8.22,8.22,0,0,1-4.57.43,10.54,10.54,0,0,1-2.55-.82,11.9,11.9,0,0,0-2.39-1,10.92,10.92,0,0,1,1.9-.76L28.27,9h.15c1.12-.22,2.28.4,3.35.67a4.89,4.89,0,0,0,1.86.16,6,6,0,0,0,1.91-.61c1-.51,2-1.18,3-1.69C38.33,7.83,38.1,8.12,37.89,8.42Z"/></g></g></svg>