<svg xmlns="http://www.w3.org/2000/svg" viewBox="0 0 48.02 48"><defs><style>.cls-1{fill:#fff;}</style></defs><g id="Layer_2" data-name="Layer 2"><g id="HD_map" data-name="HD map"><path class="cls-1" d="M24,13.51A10.49,10.49,0,1,1,13.52,24.08,10.49,10.49,0,0,1,24,13.51ZM31.52,24A7.52,7.52,0,1,0,24,31.52,7.5,7.5,0,0,0,31.52,24Z"/><path class="cls-1" d="M41.91,25.49H37.57a1.61,1.61,0,0,1-1.47-.68,1.38,1.38,0,0,1-.08-1.5,1.49,1.49,0,0,1,1.4-.81h6.92c.68,0,1.36,0,2,0A1.53,1.53,0,0,1,48,24a1.49,1.49,0,0,1-1.6,1.5c-1.5,0-3,0-4.51,0Z"/><path class="cls-1" d="M6.09,22.5c1.51,0,3,0,4.52,0a1.46,1.46,0,0,1,1.51,1.12,1.43,1.43,0,0,1-1.32,1.82c-1.11.06-2.23,0-3.34,0-1.95,0-3.91,0-5.86,0A1.47,1.47,0,0,1,.25,23.2a1.51,1.51,0,0,1,1.39-.7C3.13,22.51,4.61,22.5,6.09,22.5Z"/><path class="cls-1" d="M39.71,41.4a2.8,2.8,0,0,1-.82-.46q-3.26-3.21-6.47-6.46a1.48,1.48,0,1,1,2.09-2.08c2.14,2.12,4.26,4.25,6.39,6.38a1.45,1.45,0,0,1,.38,1.76A1.53,1.53,0,0,1,39.71,41.4Z"/><path class="cls-1" d="M16.1,14.33c-.06.84-.3,1.31-.85,1.57a1.37,1.37,0,0,1-1.59-.19c-.58-.52-1.12-1.08-1.67-1.64Q9.64,11.75,7.3,9.39a3.21,3.21,0,0,1-.42-.48,1.47,1.47,0,0,1,2-2.06,2.79,2.79,0,0,1,.49.42c2,2,4,4,6,6A6.12,6.12,0,0,1,16.1,14.33Z"/><path class="cls-1" d="M16.1,33.61a3.53,3.53,0,0,1-.47.85q-3.21,3.26-6.46,6.47A1.48,1.48,0,1,1,7.11,38.8l6.34-6.34a1.46,1.46,0,0,1,1.76-.39A1.57,1.57,0,0,1,16.1,33.61Z"/><path class="cls-1" d="M33.48,16.18a1.77,1.77,0,0,1-1.41-1,1.39,1.39,0,0,1,.31-1.62c.85-.87,1.71-1.72,2.57-2.58,1.29-1.3,2.58-2.61,3.9-3.89a1.48,1.48,0,0,1,2.54.67,1.56,1.56,0,0,1-.58,1.56l-3.4,3.4c-.92.93-1.83,1.87-2.78,2.77A7.39,7.39,0,0,1,33.48,16.18Z"/><path class="cls-1" d="M22.53,41.84c0-1.44,0-2.89,0-4.34a1.49,1.49,0,1,1,3,0c0,3,0,5.91,0,8.86A1.48,1.48,0,0,1,24,48a1.5,1.5,0,0,1-1.45-1.64Z"/><path class="cls-1" d="M25.49,6c0,1.53,0,3.05,0,4.57A1.48,1.48,0,0,1,23.43,12a1.52,1.52,0,0,1-.9-1.57c0-2.48,0-5,0-7.44,0-.43,0-.86,0-1.29C22.54.67,23.09,0,24,0s1.49.64,1.49,1.71V6Z"/></g></g></svg>