<svg xmlns="http://www.w3.org/2000/svg" viewBox="0 0 67.73 48"><defs><style>.cls-1{fill:#fff;}</style></defs><g id="Layer_2" data-name="Layer 2"><g id="Humans_ressources" data-name="Humans ressources"><path class="cls-1" d="M3.88,9.29h2.9c0,.24,0,.47,0,.71a7.41,7.41,0,0,0,7.4,7.39h.19A7.39,7.39,0,0,0,21.53,10c0-.07,0-.15,0-.22s0-.33,0-.49h2.88A.66.66,0,0,0,25,8.64.66.66,0,0,0,24.37,8H21.24l-1.5-6.25A2.25,2.25,0,0,0,16.89.1L14.2.9,11.52.1A2.28,2.28,0,0,0,9.73.3,2.2,2.2,0,0,0,8.64,1.73L7,8H3.88a.65.65,0,0,0,0,1.3Zm6-7.24a1,1,0,0,1,.47-.62,1,1,0,0,1,.78-.08L14,2.21a.77.77,0,0,0,.37,0l2.88-.86a1,1,0,0,1,.76.08.91.91,0,0,1,.46.62L19.92,8H8.36ZM8.08,9.29h12.1a4,4,0,0,1,0,.49,1.64,1.64,0,0,1,0,.22,6.09,6.09,0,0,1-5.9,6.08h-.19A6.1,6.1,0,0,1,8,10,5.53,5.53,0,0,1,8.08,9.29Z"/><path class="cls-1" d="M62.52,22.58a.47.47,0,0,0-.13-.11,14.08,14.08,0,0,0-3.73-2.14l-.11,0a14,14,0,0,0-4.45-.89.63.63,0,0,0-.52-.27.66.66,0,0,0-.53.27l-.34,0a14.33,14.33,0,0,0-4.11.87l-.11,0a14.08,14.08,0,0,0-3.73,2.14.69.69,0,0,0-.13.11,14.1,14.1,0,0,0-5.13,10l-.17-.08-.12-.05a16.16,16.16,0,0,0-2.89-.77,15.91,15.91,0,0,0-2.09-.23.72.72,0,0,0-.59-.3.73.73,0,0,0-.59.3,14.6,14.6,0,0,0-1.88.2,15.49,15.49,0,0,0-3,.76,14.2,14.2,0,0,0-5.14-9.85.47.47,0,0,0-.13-.11,13.92,13.92,0,0,0-3.73-2.14l-.11,0a13.93,13.93,0,0,0-4.45-.89.57.57,0,0,0-.32-.22.49.49,0,0,0-.2-.05.66.66,0,0,0-.53.27,14,14,0,0,0-4.45.89l-.11,0a14.08,14.08,0,0,0-3.73,2.14.69.69,0,0,0-.13.11A14.11,14.11,0,0,0,0,33.51a.66.66,0,0,0,.65.65.66.66,0,0,0,.65-.65,12.77,12.77,0,0,1,3.71-9v8.88a.65.65,0,0,0,1.28.14.78.78,0,0,0,0-.14v-10a12.8,12.8,0,0,1,2.37-1.46v5.45a.66.66,0,0,0,.65.65h9.61a.65.65,0,0,0,.65-.65V21.89A12.55,12.55,0,0,1,22,23.35v10a.68.68,0,0,0,0,.14.64.64,0,0,0,.63.51.66.66,0,0,0,.64-.51s0-.1,0-.14V24.49A12.81,12.81,0,0,1,27,33a15.31,15.31,0,0,0-2.33,1.34c-.29.2-.57.41-.84.62a.64.64,0,0,0-.15.13,15.78,15.78,0,0,0-5.8,12.22.73.73,0,0,0,.73.73.73.73,0,0,0,.72-.73,14.3,14.3,0,0,1,4.15-10.08v9.93a.77.77,0,0,0,0,.15.72.72,0,0,0,.71.57.73.73,0,0,0,.71-.57.77.77,0,0,0,0-.15V35.9a15,15,0,0,1,2.6-1.6l.06,0v6.1a.73.73,0,0,0,.73.73H39a.73.73,0,0,0,.73-.73v-6.1l.06,0a15,15,0,0,1,2.6,1.6V47.12a.77.77,0,0,0,0,.15.73.73,0,0,0,1.42,0,.77.77,0,0,0,0-.15V37.19A14.29,14.29,0,0,1,48,47.27a.73.73,0,1,0,1.46,0,15.9,15.9,0,0,0-5.83-12.22.86.86,0,0,0-.14-.13c-.27-.21-.56-.42-.84-.62a15.22,15.22,0,0,0-1.91-1.13,12.84,12.84,0,0,1,3.69-8.68v8.88a.68.68,0,0,0,0,.14.64.64,0,0,0,.63.51.66.66,0,0,0,.64-.51.71.71,0,0,0,0-.14v-10a13.21,13.21,0,0,1,2.38-1.46v5.45a.65.65,0,0,0,.65.65h9.61a.65.65,0,0,0,.65-.65V21.89a12.55,12.55,0,0,1,2.38,1.46v10a.68.68,0,0,0,0,.14.64.64,0,0,0,.63.51.66.66,0,0,0,.64-.51s0-.1,0-.14V24.49a12.81,12.81,0,0,1,3.71,9,.66.66,0,0,0,.65.65.66.66,0,0,0,.65-.65A14.23,14.23,0,0,0,62.52,22.58ZM18.28,26.69H10V21.36a12.77,12.77,0,0,1,3.51-.67v1.67a.65.65,0,0,0,.65.65.78.78,0,0,0,.21,0,.65.65,0,0,0,.44-.61V20.69a12.77,12.77,0,0,1,3.51.67Zm20,13H29v-6a15.24,15.24,0,0,1,3.93-.75V34.8a.73.73,0,0,0,.72.73.73.73,0,0,0,.73-.73V32.93a14.17,14.17,0,0,1,2,.23,16.29,16.29,0,0,1,2,.52v6Zm19.44-13H49.41V21.36a12.88,12.88,0,0,1,3.3-.65l.21,0v1.67a.65.65,0,0,0,1.3,0V20.69a12.77,12.77,0,0,1,3.51.67Z"/><path class="cls-1" d="M43.33,9.29h2.9c0,.16,0,.32,0,.49s0,.15,0,.22a7.41,7.41,0,0,0,6.52,7.34,8.46,8.46,0,0,0,.87.05A7.4,7.4,0,0,0,61,10c0-.24,0-.48,0-.71h2.88a.65.65,0,0,0,.64-.65A.65.65,0,0,0,63.82,8H60.69l-1.5-6.25A2.25,2.25,0,0,0,56.34.1L53.65.9,51,.1a2.28,2.28,0,0,0-1.79.2,2.2,2.2,0,0,0-1.09,1.43L46.48,8H43.33a.65.65,0,1,0,0,1.3Zm6-7.24a1,1,0,0,1,.47-.62,1,1,0,0,1,.78-.08l2.88.86a.77.77,0,0,0,.37,0l2.88-.86a1,1,0,0,1,.76.08.91.91,0,0,1,.46.62L59.37,8H47.81ZM47.53,9.29h12.1a5.78,5.78,0,0,1,0,.71,6.1,6.1,0,0,1-6.1,6.09,5.1,5.1,0,0,1-.87-.07,6.1,6.1,0,0,1-5.23-6,1.64,1.64,0,0,1,0-.22A3.91,3.91,0,0,1,47.53,9.29Z"/><path class="cls-1" d="M56.21,29.28H50.92a.65.65,0,1,0,0,1.3h5.29a.65.65,0,0,0,0-1.3Z"/><path class="cls-1" d="M16.76,29.28H11.47a.65.65,0,0,0,0,1.3h5.29a.65.65,0,0,0,0-1.3Z"/><path class="cls-1" d="M21.45,19.44a.73.73,0,0,0,.73.73h3.24a7.14,7.14,0,0,0,0,.8,8.28,8.28,0,0,0,5.79,7.89,8.21,8.21,0,0,0,5.15-.07A8.27,8.27,0,0,0,41.92,21a7,7,0,0,0,0-.8H45.1a.73.73,0,1,0,0-1.46H41.61l-1.69-7a2.46,2.46,0,0,0-1.2-1.61,2.51,2.51,0,0,0-2-.23l-.41.13-2.59.77L31.17,10l-.45-.14a2.54,2.54,0,0,0-2,.23,2.51,2.51,0,0,0-1.22,1.6l-1.8,7H22.18A.73.73,0,0,0,21.45,19.44Zm7.45-7.37a1.14,1.14,0,0,1,.53-.7,1.1,1.1,0,0,1,.87-.09l.87.26,2.35.7a.61.61,0,0,0,.42,0l2.38-.71.84-.25a1.05,1.05,0,0,1,.85.09,1.1,1.1,0,0,1,.52.7l1.6,6.65H27.19Zm-2,8.1H40.41a5.49,5.49,0,0,1,.06.8,6.83,6.83,0,0,1-13.65,0A7,7,0,0,1,26.87,20.17Z"/><path class="cls-1" d="M36.59,42.54H30.67a.73.73,0,0,0,0,1.46h5.92a.73.73,0,1,0,0-1.46Z"/></g></g></svg>