<?xml version="1.0" encoding="utf-8"?>
<!-- Generator: Adobe Illustrator 25.1.0, SVG Export Plug-In . SVG Version: 6.00 Build 0)  -->
<svg version="1.1" id="Layer_1" xmlns="http://www.w3.org/2000/svg" xmlns:xlink="http://www.w3.org/1999/xlink" x="0px" y="0px"
	 viewBox="0 0 42.3 48" style="enable-background:new 0 0 42.3 48;" xml:space="preserve">
<style type="text/css">
	.st0{fill:#FFFFFF;}
</style>
<g id="Layer_2_1_">
	<g id="Veraisin_yield_tracking">
		<path class="st0" d="M42.3,16.9c0-4.1-3.4-7.5-7.5-7.4c-2.9,0-5.4,1.7-6.7,4.3C27,11.3,24.7,9.6,22,9.4V8.8c1,0.2,1.9,0.3,2.9,0.3
			c1.5,0.1,3-0.3,4.3-1c3.1-1.8,4.4-6.6,4.5-6.8c0.1-0.4-0.1-0.7-0.5-0.8c0,0,0,0,0,0c-0.2,0-5-1.3-8.1,0.5
			c-1.3,0.9-2.4,2.1-3.2,3.5V3.2c0-0.4-0.3-0.7-0.7-0.7s-0.7,0.3-0.7,0.7v6.2c-2.7,0.2-5,1.9-6.1,4.3C12.8,10,8.4,8.3,4.7,10
			S-0.7,16.2,1,20c1.2,2.7,3.9,4.4,6.8,4.4c0.2,0,0.5,0,0.7,0c-2.4,3.4-1.6,8.1,1.7,10.5c1.3,0.9,2.8,1.4,4.3,1.4c0.2,0,0.5,0,0.7,0
			c-2.3,3.4-1.5,8.1,1.9,10.4c1.2,0.9,2.7,1.3,4.2,1.3c4.1,0,7.4-3.4,7.5-7.5c0-1.6-0.5-3.1-1.4-4.4c0.2,0,0.5,0,0.7,0
			c4.1,0,7.4-3.4,7.5-7.5c0-1.6-0.5-3.1-1.4-4.4c0.2,0,0.5,0,0.7,0C38.9,24.3,42.3,21,42.3,16.9z M25.8,2.2c2-1.2,5-0.8,6.3-0.5
			c-0.4,1.3-1.6,4.1-3.6,5.3s-5,0.8-6.4,0.5C22.6,6.1,23.8,3.4,25.8,2.2z M34.9,10.7c3.4,0,6.1,2.7,6.1,6.1S38.2,23,34.9,23
			s-6.1-2.7-6.1-6.1l0,0C28.8,13.5,31.5,10.7,34.9,10.7z M28.8,21.2c-0.2,0-0.5,0-0.7,0s-0.5,0-0.7,0c0.3-0.4,0.5-0.8,0.7-1.2
			C28.3,20.4,28.5,20.8,28.8,21.2z M21.3,10.7c3.4,0,6.1,2.8,6.1,6.1c0,3.4-2.7,6.1-6.1,6.1c-3.4,0-6.1-2.8-6.1-6.1
			C15.2,13.5,17.9,10.7,21.3,10.7z M22,24.3c-0.3,0.4-0.5,0.8-0.7,1.2c-0.2-0.4-0.4-0.8-0.7-1.2C21.1,24.4,21.5,24.4,22,24.3z
			 M15.2,21.2c-0.2,0-0.5,0-0.7,0c-0.2,0-0.5,0-0.7,0c0.3-0.4,0.5-0.8,0.7-1.2C14.7,20.4,15,20.8,15.2,21.2z M1.7,16.9
			c0-3.4,2.7-6.1,6.1-6.1s6.1,2.8,6.1,6.1S11.1,23,7.8,23l0,0C4.4,23,1.7,20.2,1.7,16.9z M8.5,28.7c0-3.4,2.7-6.1,6.1-6.1
			c3.4,0,6.1,2.7,6.1,6.1s-2.7,6.1-6.1,6.1C11.2,34.8,8.5,32.1,8.5,28.7z M21.4,31.8c0.2,0.4,0.4,0.8,0.7,1.2c-0.2,0-0.5,0-0.7,0
			c-0.2,0-0.5,0-0.7,0C20.9,32.6,21.1,32.2,21.4,31.8L21.4,31.8z M21.4,46.6c-3.4,0-6.1-2.7-6.1-6.1c0-3.4,2.7-6.2,6.1-6.2
			c3.4,0,6.1,2.7,6.1,6.1c0,0,0,0,0,0C27.4,43.9,24.7,46.6,21.4,46.6C21.3,46.6,21.3,46.6,21.4,46.6L21.4,46.6z M28.1,34.8
			c-3.4,0-6.1-2.8-6.1-6.1s2.7-6.1,6.1-6.1c3.4,0,6.1,2.8,6.1,6.1C34.2,32.1,31.5,34.8,28.1,34.8z"/>
	</g>
</g>
</svg>
